# xmcd CD database file
#
# Track frame offsets:
#	150
#	12410
#	25755
#	51697
#	68817
#	85520
#	96702
#	114692
#	127490
#	145420
#	158187
#	174695
#	189095
#	199662
#	215657
#
# Disc length: 3156 seconds
#
# Revision: 0
# Processed by: cddbd v1.5PL3 Copyright (c) Steve Scherf et al.
# Submitted via: CDex 1.50beta10
#
DISCID=e50c520f
DTITLE=赤木りえ - 少女の頃
DYEAR=1900
DGENRE=New Age
TTITLE0=赤とんぼ
TTITLE1=浜辺の歌
TTITLE2=荒城の月
TTITLE3=ペチカ
TTITLE4=赤い靴
TTITLE5=夏の思い出
TTITLE6=砂山
TTITLE7=五木の子守唄
TTITLE8=雨
TTITLE9=しゃぼん玉
TTITLE10=通りゃんせ
TTITLE11=宵待草
TTITLE12=夕焼小焼
TTITLE13=さくらさくら
TTITLE14=七つの子
EXTD=
EXTT0=
EXTT1=
EXTT2=
EXTT3=
EXTT4=
EXTT5=
EXTT6=
EXTT7=
EXTT8=
EXTT9=
EXTT10=
EXTT11=
EXTT12=
EXTT13=
EXTT14=
PLAYORDER=
